# xmcd
#
# Track frame offsets: 
#        150
#        24356
#        44672
#        64478
#        85122
#        108141
#        124334
#        150942
#        171322
#        192164
#        221360
#
# Disc length: 3216 seconds
#
# Revision: 0
# Processed by: cddbd v1.5.2PL0 Copyright (c) Steve Scherf et al.
# Submitted via: ExactAudioCopy v1.2
#
DISCID=8f0c8e0b
DTITLE=Jonathan Ellison - Guitar Cry for Me
DYEAR=2017
DGENRE=Blues
TTITLE0=Guitar Cry For Me
TTITLE1=Lyin' Eyes
TTITLE2=Leave Well Enough Alone
TTITLE3=Keep Going
TTITLE4=Sweeter The Girl Is
TTITLE5=Lady In The Street
TTITLE6=Outside Love Affair
TTITLE7=One Good Love
TTITLE8=Why Do You Treat Me So Bad
TTITLE9=I Won't Let You Down
TTITLE10=I Still Haven't Found What I'm Looking For
EXTD=
EXTT0=
EXTT1=
EXTT2=
EXTT3=
EXTT4=
EXTT5=
EXTT6=
EXTT7=
EXTT8=
EXTT9=
EXTT10=
PLAYORDER=
